<?xml version="1.0" encoding="UTF-8" standalone="no"?>
<!-- Created with Inkscape (http://www.inkscape.org/) -->

<svg
   version="1.1"
   id="svg118853"
   xml:space="preserve"
   width="800"
   height="800"
   viewBox="0 0 800 800"
   sodipodi:docname="mountain-publicdomainvectors.org.svg"
   inkscape:version="1.1.2 (b8e25be833, 2022-02-05)"
   xmlns:inkscape="http://www.inkscape.org/namespaces/inkscape"
   xmlns:sodipodi="http://sodipodi.sourceforge.net/DTD/sodipodi-0.dtd"
   xmlns="http://www.w3.org/2000/svg"
   xmlns:svg="http://www.w3.org/2000/svg"><defs
     id="defs118857"><clipPath
       clipPathUnits="userSpaceOnUse"
       id="clipPath118867"><path
         d="M 0,600 H 600 V 0 H 0 Z"
         id="path118865" /></clipPath></defs><sodipodi:namedview
     id="namedview118855"
     pagecolor="#ffffff"
     bordercolor="#666666"
     borderopacity="1.0"
     inkscape:pageshadow="2"
     inkscape:pageopacity="0.0"
     inkscape:pagecheckerboard="0"
     showgrid="false"
     inkscape:zoom="1.03875"
     inkscape:cx="400"
     inkscape:cy="400"
     inkscape:window-width="1920"
     inkscape:window-height="1018"
     inkscape:window-x="-8"
     inkscape:window-y="-8"
     inkscape:window-maximized="1"
     inkscape:current-layer="g118859" /><g
     id="g118859"
     inkscape:groupmode="layer"
     inkscape:label="mountain-publicdomainvectors.org"
     transform="matrix(1.3333333,0,0,-1.3333333,0,800)"><g
       id="g118861"><g
         id="g118863"
         clip-path="url(#clipPath118867)"><path
           d="m 294.426,140.988 c 155.523,0 282.37,24.198 282.37,53.867 0,29.668 -126.847,53.866 -282.37,53.866 -155.527,0 -282.373,-24.198 -282.373,-53.866 0,-29.669 126.846,-53.867 282.373,-53.867"
           style="fill:#99cc33;fill-opacity:1;fill-rule:evenodd;stroke:none"
           id="path118869" /><path
           d="m 48.588,207.365 c 65.373,58.565 113.441,129.243 148.882,208.761 1.821,4.086 4.871,6.942 9.069,8.49 4.197,1.547 8.371,1.355 12.41,-0.573 0.079,-0.038 0.158,-0.077 0.239,-0.114 9.316,-4.446 20.18,-1.847 26.473,6.335 3.537,4.598 7.075,9.198 10.612,13.797 1.834,2.383 4.319,3.74 7.316,3.992 2.997,0.253 5.673,-0.668 7.879,-2.711 0.352,-0.327 0.706,-0.653 1.056,-0.979 5.031,-4.656 12.157,-5.533 18.162,-2.235 1.915,1.051 4.041,1.423 6.318,1.101 2.962,-0.419 5.353,-1.897 7.051,-4.359 5.037,-7.307 10.075,-14.612 15.113,-21.917 3.351,-4.858 8.837,-7.213 14.667,-6.293 5.941,0.937 12.131,-1.62 15.585,-6.968 53.204,-82.339 117.062,-149.37 194.012,-197.575 2.945,-1.846 4.33,-5.203 3.539,-8.588 -0.789,-3.384 -3.515,-5.785 -6.972,-6.134 -8.91,-0.909 -17.92,-0.465 -27.037,1.46 -14.945,3.161 -28.482,2.45 -43.014,-2.257 -27.635,-8.948 -64.747,-5.405 -101.884,-1.828 -10.089,0.97 -18.882,0.109 -28.59,-2.809 -27.324,-8.203 -54.014,-11.822 -78.972,-2.941 -10.093,3.591 -19.351,4.912 -30.043,4.281 -25.221,-1.487 -49.09,0.709 -70.033,10.883 -13.892,6.746 -28.007,8.087 -42.918,4.072 -26.1,-7.027 -46.85,-8.533 -64.823,-7.07 -2.847,0.232 -5.148,2.031 -6.059,4.738 -0.912,2.707 -0.166,5.533 1.962,7.441"
           style="fill:#7d746a;fill-opacity:1;fill-rule:evenodd;stroke:none"
           id="path118871" /><path
           d="m 206.539,424.616 c 4.197,1.547 8.371,1.355 12.41,-0.573 0.079,-0.038 0.158,-0.077 0.239,-0.114 9.316,-4.446 20.18,-1.847 26.473,6.335 3.537,4.598 7.075,9.198 10.612,13.797 1.834,2.383 4.319,3.74 7.316,3.992 2.997,0.253 5.673,-0.668 7.879,-2.711 0.352,-0.327 0.706,-0.653 1.056,-0.979 5.031,-4.656 12.157,-5.533 18.162,-2.235 1.915,1.051 4.041,1.423 6.318,1.101 2.962,-0.419 5.353,-1.897 7.051,-4.359 5.037,-7.307 10.075,-14.612 15.113,-21.917 3.351,-4.858 8.837,-7.213 14.667,-6.293 4.823,0.76 9.809,-0.782 13.363,-4.249 -4.268,-0.819 -7.752,-2.983 -10.56,-6.302 -2.705,-3.195 -7.388,-3.765 -10.783,-1.313 -2.613,1.889 -5.226,3.779 -7.84,5.668 -5.324,3.846 -11.829,4.465 -17.784,1.693 -5.213,-2.426 -11.383,-1.261 -15.377,3.084 -0.853,0.926 -1.706,1.853 -2.557,2.78 -4.997,5.435 -12.347,7.246 -19.296,4.755 -6.69,-2.396 -13.378,-4.793 -20.065,-7.189 -7.309,-2.618 -15.028,-0.734 -20.31,4.955 -4.332,4.668 -9.628,8.112 -16.087,10.074"
           style="fill:#695e52;fill-opacity:1;fill-rule:evenodd;stroke:none"
           id="path118873" /><path
           d="m 347.198,406.411 c -4.268,-0.819 -7.752,-2.983 -10.56,-6.302 -2.705,-3.195 -7.388,-3.765 -10.783,-1.313 -2.613,1.889 -5.226,3.779 -7.84,5.668 -5.324,3.846 -11.829,4.465 -17.784,1.693 -5.213,-2.426 -11.383,-1.261 -15.377,3.084 -0.853,0.926 -1.706,1.853 -2.557,2.78 -4.997,5.435 -12.347,7.246 -19.296,4.755 -6.69,-2.396 -13.378,-4.793 -20.065,-7.189 -7.309,-2.618 -15.028,-0.734 -20.31,4.955 -4.332,4.668 -9.628,8.112 -16.087,10.074 4.473,1.064 9.935,-1.437 16.225,-4.823 14.111,-7.597 25.519,1.632 39.302,5.93 6.966,2.173 15.68,1.851 21.512,-2.535 7.23,-5.438 9.225,-7.258 20.072,-3.844 4.674,1.471 9.641,-3.278 13.769,-5.917 6.093,-3.897 11.188,-12.228 18.847,-8.86 3.878,1.706 7.732,3.304 10.932,1.844"
           style="fill:#423930;fill-opacity:1;fill-rule:evenodd;stroke:none"
           id="path118875" /><path
           d="m 90.74,196.615 c -14.226,-2.094 -26.696,-2.355 -38.055,-1.429 -1.423,0.115 -2.709,0.623 -3.755,1.441 20.376,-0.58 41.895,17.111 63.248,32.178 -5.018,-12.936 -11.773,-24.073 -21.438,-32.19 m 85.108,-4.394 c -5.292,1.574 -10.44,3.543 -15.422,5.963 -6.947,3.373 -13.947,5.396 -21.076,6.072 19.815,0.951 33.846,14.807 47.511,29.48 -8.37,-21.857 -12.452,-32.127 -11.013,-41.515 m 231.39,-6.692 c -12.771,0.701 -25.971,1.969 -39.174,3.241 -1.818,0.173 -3.594,0.289 -5.342,0.343 -6.159,13.244 -14.814,24.201 -25.438,33.35 26.093,-9.692 49.448,-21.965 69.954,-36.934 m 136.969,7.561 c -1.167,-0.932 -2.609,-1.533 -4.208,-1.695 -8.91,-0.909 -17.92,-0.465 -27.037,1.46 -9.372,1.981 -18.189,2.44 -27.044,1.348 -10.537,9.604 -24.94,17.125 -40.484,24.033 36.356,-4.705 68.129,-14.322 98.773,-25.146"
           style="fill:#695e52;fill-opacity:1;fill-rule:evenodd;stroke:none"
           id="path118877" /><path
           d="m 279.423,178.592 c -6.402,0.785 -12.715,2.219 -18.921,4.428 -5.364,1.908 -10.491,3.175 -15.725,3.849 16.494,2.051 20.621,29.926 28.744,51.447 0.054,-22.3 -2.547,-51.002 5.902,-59.724"
           style="fill:#695e52;fill-opacity:1;fill-rule:evenodd;stroke:none"
           id="path118879" /><path
           d="m 65.497,214.545 c 53.52,65.535 108.079,100.467 142.032,179.221 4.737,-24.833 0.023,-46.911 -7.912,-68.048 20.888,15.735 37.666,37.54 47.476,69.631 3.574,-22.992 3.285,-44.794 0,-65.675 12.929,25.316 22.152,53.282 27.694,83.874 5.854,-32.898 19.203,-57.833 41.938,-72.797 -4.196,14.52 -6.376,30.046 0,49.85 8.3,-21.446 20.973,-36.58 38.771,-44.311 -0.101,5.787 0.497,12.412 1.583,19.782 45.629,-70.687 96.798,-103.392 170.517,-155.482 -36.949,3.404 -71.457,12.414 -95.744,28.484 4.485,-15.035 10.947,-28.09 19.782,-41.937 -62.241,14.984 -90.304,45.918 -120.272,75.961 -13.507,-24.145 -17.09,-49.705 -15.824,-75.961 -8.222,26.304 -21.32,48.338 -37.981,67.258 -25.303,-30.118 -53.825,-51.647 -85.457,-64.883 5.808,17.068 8.438,35.285 3.166,56.177 -16.471,-15.947 -37.864,-25.988 -64.884,-29.275 6.921,12.043 10.486,26.201 10.286,42.729 -25.057,-18.2 -50.114,-36.399 -75.171,-54.598"
           style="fill:#8c847b;fill-opacity:1;fill-rule:evenodd;stroke:none"
           id="path118881" /><path
           d="m 120.107,268.078 c 43.511,26.209 68.146,62.016 80.533,104.05 -22.057,-34.25 -48.363,-69.012 -80.533,-104.05 m 33.457,-17.014 c 28.823,42.465 59.358,77.958 90.26,111.965 -12.779,-58.443 -35.951,-104.201 -90.26,-111.965 m 58.358,-20.968 c 38.983,25.041 58.797,79.934 64.582,156.671 C 253.28,336.269 230.993,284.82 211.922,230.096 m 97.651,3.957 c -15.762,38.017 -33.699,74.629 -26.066,127.789 28.759,-33.922 38.806,-75.932 26.066,-127.789 m 16.73,125.415 c 8.116,-64.665 39.735,-109.15 94.538,-133.724 -29.958,50.902 -61.469,95.483 -94.538,133.724 M 483.478,237.219 C 417.1,247.898 380.464,289.152 362.872,348.392 397.18,305.19 437.604,267.693 483.478,237.219"
           style="fill:#a8a199;fill-opacity:1;fill-rule:evenodd;stroke:none"
           id="path118883" /><path
           d="m 176.287,275.91 c 17.347,25.354 36.029,49.306 55.578,72.74 -7.017,-22.903 -17.561,-45.472 -34.612,-60.148 -6.439,-5.543 -13.452,-9.678 -20.966,-12.592 m 55.116,-8.164 c 17.88,22.57 27.606,54.223 33.047,84.931 -11.696,-28.019 -22.836,-56.271 -33.047,-84.931 m 74.5,5.061 c 3.084,29.473 -1.715,57.168 -16.874,82.36 -0.428,-14.472 1.008,-28.709 4.328,-43.2 3.09,-13.488 7.611,-26.385 12.546,-39.16 m 30.36,73.526 c 21.421,-28.077 41.024,-57.77 59.102,-88.335 -30.81,20.988 -49.827,50.938 -59.102,88.335 M 437.682,269.08 c -19.574,16.207 -37.951,33.919 -55.044,52.971 13.145,-23.684 31.173,-41.617 55.044,-52.971"
           style="fill:#c9c3bd;fill-opacity:1;fill-rule:evenodd;stroke:none"
           id="path118885" /><path
           d="m 366.225,166.764 c 18.86,0 34.244,3.334 34.244,7.418 0,4.086 -15.384,7.416 -34.244,7.416 -18.863,0 -34.246,-3.33 -34.246,-7.416 0,-4.084 15.383,-7.418 34.246,-7.418"
           style="fill:#88ba25;fill-opacity:1;fill-rule:evenodd;stroke:none"
           id="path118887" /><path
           d="m 355.439,169.107 c -7.668,1.147 -15.336,2.293 -23.005,3.44 -2.497,0.375 -4.407,2.162 -4.948,4.629 -0.54,2.467 0.45,4.887 2.563,6.269 4.692,3.071 9.384,6.139 14.075,9.207 4.251,2.782 8.839,3.75 13.851,2.922 4.628,-0.765 9.254,-0.929 13.882,-0.445 6.817,0.715 13.011,-1.883 17.28,-7.246 1.377,-1.729 2.754,-3.459 4.13,-5.188 1.16,-1.459 1.51,-3.228 0.993,-5.019 -0.519,-1.789 -1.759,-3.098 -3.519,-3.711 -2.029,-0.707 -4.06,-1.416 -6.09,-2.123 -9.809,-3.418 -18.937,-4.274 -29.212,-2.735"
           style="fill:#8c847b;fill-opacity:1;fill-rule:evenodd;stroke:none"
           id="path118889" /><path
           d="m 349.816,179.859 c -3.526,0.573 -7.05,1.145 -10.577,1.715 -1.147,0.188 -1.639,1.076 -1.275,2.307 0.366,1.228 1.481,2.433 2.89,3.123 3.125,1.529 6.252,3.057 9.378,4.588 2.833,1.385 5.368,1.867 7.651,1.455 2.108,-0.383 4.373,-0.463 6.802,-0.223 3.579,0.358 5.999,-0.937 6.745,-3.609 0.241,-0.861 0.482,-1.723 0.724,-2.584 0.203,-0.727 -0.078,-1.61 -0.796,-2.5 -0.717,-0.893 -1.672,-1.545 -2.707,-1.85 -1.194,-0.353 -2.387,-0.705 -3.579,-1.058 -5.765,-1.703 -10.534,-2.129 -15.256,-1.364"
           style="fill:#a8a29c;fill-opacity:1;fill-rule:evenodd;stroke:none"
           id="path118891" /><path
           d="m 355.439,169.107 c -7.668,1.147 -15.336,2.293 -23.005,3.44 -1.64,0.246 -3.028,1.101 -3.939,2.357 l 15.331,-2.484 c 10.147,-1.647 20.388,-0.731 32.774,2.928 2.563,0.756 5.126,1.513 7.689,2.271 2.222,0.656 4.273,2.057 5.815,3.973 0.823,1.021 1.379,2.039 1.652,3.002 l 1.511,-1.899 c 1.16,-1.459 1.51,-3.228 0.993,-5.019 -0.519,-1.789 -1.759,-3.098 -3.519,-3.711 -2.029,-0.707 -4.06,-1.416 -6.09,-2.123 -9.809,-3.418 -18.937,-4.274 -29.212,-2.735"
           style="fill:#695e52;fill-opacity:1;fill-rule:evenodd;stroke:none"
           id="path118893" /><path
           d="m 119.693,191.268 c 13.44,0 24.402,2.375 24.402,5.285 0,2.912 -10.962,5.285 -24.402,5.285 -13.44,0 -24.402,-2.373 -24.402,-5.285 0,-2.91 10.962,-5.285 24.402,-5.285"
           style="fill:#88ba25;fill-opacity:1;fill-rule:evenodd;stroke:none"
           id="path118895" /><path
           d="m 112.008,192.938 c -5.464,0.816 -10.928,1.632 -16.393,2.451 -1.779,0.265 -3.141,1.539 -3.526,3.297 -0.384,1.757 0.321,3.482 1.827,4.466 3.342,2.19 6.686,4.375 10.029,6.563 3.029,1.982 6.299,2.672 9.869,2.08 3.298,-0.545 6.596,-0.66 9.893,-0.316 4.857,0.509 9.272,-1.342 12.313,-5.163 0.981,-1.232 1.961,-2.466 2.943,-3.697 0.826,-1.039 1.076,-2.301 0.708,-3.576 -0.369,-1.275 -1.254,-2.207 -2.507,-2.645 -1.447,-0.505 -2.894,-1.009 -4.34,-1.511 -6.99,-2.438 -13.494,-3.045 -20.816,-1.949"
           style="fill:#8c847b;fill-opacity:1;fill-rule:evenodd;stroke:none"
           id="path118897" /><path
           d="m 108,200.6 c -2.512,0.406 -5.024,0.814 -7.536,1.222 -0.818,0.131 -1.169,0.766 -0.908,1.643 0.26,0.875 1.054,1.734 2.058,2.224 2.228,1.09 4.457,2.18 6.684,3.27 2.018,0.988 3.824,1.33 5.452,1.035 1.502,-0.271 3.115,-0.328 4.847,-0.158 2.549,0.254 4.273,-0.668 4.806,-2.57 0.172,-0.616 0.343,-1.229 0.515,-1.842 0.145,-0.518 -0.055,-1.147 -0.566,-1.781 -0.513,-0.637 -1.192,-1.1 -1.929,-1.319 -0.851,-0.25 -1.701,-0.502 -2.551,-0.754 -4.109,-1.213 -7.506,-1.517 -10.872,-0.97"
           style="fill:#a8a29c;fill-opacity:1;fill-rule:evenodd;stroke:none"
           id="path118899" /><path
           d="m 112.008,192.938 c -5.464,0.816 -10.928,1.632 -16.393,2.451 -1.168,0.174 -2.157,0.783 -2.807,1.679 l 10.924,-1.771 c 7.23,-1.172 14.528,-0.52 23.354,2.086 1.826,0.541 3.652,1.08 5.479,1.619 1.583,0.469 3.044,1.467 4.145,2.83 0.585,0.729 0.982,1.455 1.176,2.139 l 1.077,-1.352 c 0.826,-1.039 1.076,-2.301 0.708,-3.576 -0.369,-1.275 -1.254,-2.207 -2.507,-2.645 -1.447,-0.505 -2.894,-1.009 -4.34,-1.511 -6.99,-2.438 -13.494,-3.045 -20.816,-1.949"
           style="fill:#695e52;fill-opacity:1;fill-rule:evenodd;stroke:none"
           id="path118901" /><path
           d="m 209.072,173.611 c 18.442,0 33.48,3.258 33.48,7.25 0,3.994 -15.038,7.25 -33.48,7.25 -18.439,0 -33.479,-3.256 -33.479,-7.25 0,-3.992 15.04,-7.25 33.479,-7.25"
           style="fill:#88ba25;fill-opacity:1;fill-rule:evenodd;stroke:none"
           id="path118903" /><path
           d="m 198.529,175.898 c -7.498,1.123 -14.994,2.245 -22.493,3.368 -2.44,0.363 -4.309,2.111 -4.836,4.521 -0.527,2.412 0.44,4.779 2.505,6.131 4.586,3.002 9.175,6.002 13.762,9.002 4.154,2.719 8.64,3.666 13.54,2.855 4.524,-0.748 9.049,-0.908 13.573,-0.433 6.663,0.697 12.72,-1.842 16.893,-7.084 1.345,-1.692 2.692,-3.385 4.038,-5.074 1.134,-1.426 1.476,-3.155 0.97,-4.905 -0.507,-1.75 -1.718,-3.029 -3.439,-3.631 -1.983,-0.691 -3.97,-1.382 -5.953,-2.074 -9.592,-3.342 -18.516,-4.178 -28.56,-2.676"
           style="fill:#8c847b;fill-opacity:1;fill-rule:evenodd;stroke:none"
           id="path118905" /><path
           d="m 193.029,186.414 c -3.445,0.559 -6.891,1.117 -10.338,1.676 -1.123,0.181 -1.604,1.053 -1.248,2.254 0.358,1.201 1.449,2.379 2.827,3.052 3.054,1.497 6.112,2.991 9.168,4.487 2.77,1.353 5.248,1.826 7.479,1.422 2.062,-0.373 4.275,-0.453 6.651,-0.217 3.498,0.348 5.863,-0.918 6.594,-3.529 0.236,-0.842 0.472,-1.686 0.707,-2.528 0.197,-0.709 -0.076,-1.57 -0.777,-2.441 -0.702,-0.873 -1.636,-1.512 -2.648,-1.811 -1.167,-0.343 -2.331,-0.689 -3.498,-1.033 -5.636,-1.666 -10.299,-2.082 -14.917,-1.332"
           style="fill:#a8a29c;fill-opacity:1;fill-rule:evenodd;stroke:none"
           id="path118907" /><path
           d="m 198.529,175.898 c -7.498,1.123 -14.994,2.245 -22.493,3.368 -1.602,0.238 -2.959,1.074 -3.85,2.302 l 14.988,-2.429 c 9.92,-1.61 19.932,-0.715 32.042,2.863 2.506,0.738 5.013,1.48 7.516,2.221 2.173,0.64 4.178,2.011 5.687,3.882 0.804,1 1.348,1.993 1.615,2.934 l 1.477,-1.855 c 1.134,-1.426 1.476,-3.155 0.97,-4.905 -0.507,-1.75 -1.718,-3.029 -3.439,-3.631 -1.983,-0.691 -3.97,-1.382 -5.953,-2.074 -9.592,-3.342 -18.516,-4.178 -28.56,-2.676"
           style="fill:#695e52;fill-opacity:1;fill-rule:evenodd;stroke:none"
           id="path118909" /><path
           d="m 230.93,170.869 c 7.859,0 14.268,1.387 14.268,3.09 0,1.701 -6.409,3.088 -14.268,3.088 -7.858,0 -14.268,-1.387 -14.268,-3.088 0,-1.703 6.41,-3.09 14.268,-3.09"
           style="fill:#88ba25;fill-opacity:1;fill-rule:evenodd;stroke:none"
           id="path118911" /><path
           d="m 226.437,171.842 c -3.195,0.48 -6.389,0.957 -9.585,1.435 -1.04,0.157 -1.837,0.899 -2.062,1.928 -0.225,1.027 0.188,2.035 1.068,2.613 1.954,1.278 3.91,2.557 5.864,3.834 1.772,1.161 3.683,1.565 5.771,1.217 1.927,-0.316 3.856,-0.385 5.784,-0.183 2.839,0.298 5.42,-0.786 7.2,-3.02 0.573,-0.719 1.146,-1.441 1.72,-2.162 0.484,-0.608 0.628,-1.344 0.413,-2.09 -0.214,-0.746 -0.732,-1.291 -1.465,-1.547 -0.845,-0.295 -1.692,-0.59 -2.538,-0.885 -4.086,-1.423 -7.889,-1.779 -12.17,-1.14"
           style="fill:#8c847b;fill-opacity:1;fill-rule:evenodd;stroke:none"
           id="path118913" /><path
           d="m 224.094,176.322 c -1.468,0.239 -2.939,0.479 -4.406,0.717 -0.479,0.078 -0.684,0.447 -0.533,0.959 0.153,0.514 0.618,1.016 1.204,1.303 1.302,0.637 2.606,1.273 3.908,1.91 1.18,0.578 2.235,0.777 3.189,0.607 0.878,-0.16 1.821,-0.193 2.833,-0.093 1.491,0.148 2.498,-0.391 2.811,-1.502 0.099,-0.36 0.2,-0.721 0.301,-1.078 0.085,-0.303 -0.033,-0.67 -0.332,-1.041 -0.298,-0.374 -0.697,-0.645 -1.129,-0.772 -0.496,-0.146 -0.993,-0.293 -1.49,-0.439 -2.402,-0.711 -4.388,-0.889 -6.356,-0.571"
           style="fill:#a8a29c;fill-opacity:1;fill-rule:evenodd;stroke:none"
           id="path118915" /><path
           d="m 226.437,171.842 c -3.195,0.48 -6.389,0.957 -9.585,1.435 -0.684,0.102 -1.262,0.459 -1.641,0.981 l 6.388,-1.035 c 4.226,-0.684 8.494,-0.303 13.654,1.22 1.068,0.315 2.136,0.631 3.203,0.948 0.926,0.271 1.78,0.855 2.425,1.654 0.342,0.426 0.572,0.85 0.687,1.25 l 0.629,-0.791 c 0.484,-0.608 0.628,-1.344 0.413,-2.09 -0.214,-0.746 -0.732,-1.291 -1.465,-1.547 -0.845,-0.295 -1.692,-0.59 -2.538,-0.885 -4.086,-1.423 -7.889,-1.779 -12.17,-1.14"
           style="fill:#695e52;fill-opacity:1;fill-rule:evenodd;stroke:none"
           id="path118917" /><path
           d="m 492.916,178.711 c 18.862,0 34.245,3.332 34.245,7.418 0,4.084 -15.383,7.416 -34.245,7.416 -18.86,0 -34.243,-3.332 -34.243,-7.416 0,-4.086 15.383,-7.418 34.243,-7.418"
           style="fill:#88ba25;fill-opacity:1;fill-rule:evenodd;stroke:none"
           id="path118919" /><path
           d="m 482.133,181.053 c -7.669,1.146 -15.337,2.293 -23.006,3.441 -2.498,0.375 -4.408,2.16 -4.947,4.627 -0.54,2.469 0.449,4.887 2.562,6.272 4.692,3.068 9.384,6.136 14.075,9.207 4.25,2.781 8.839,3.75 13.85,2.92 4.627,-0.766 9.255,-0.93 13.884,-0.444 6.814,0.713 13.011,-1.885 17.278,-7.246 1.376,-1.728 2.755,-3.461 4.131,-5.189 1.16,-1.457 1.51,-3.227 0.992,-5.018 -0.517,-1.791 -1.759,-3.098 -3.517,-3.713 l -6.091,-2.121 c -9.81,-3.42 -18.938,-4.273 -29.211,-2.736"
           style="fill:#8c847b;fill-opacity:1;fill-rule:evenodd;stroke:none"
           id="path118921" /><path
           d="m 476.508,191.807 c -3.525,0.572 -7.051,1.144 -10.575,1.714 -1.15,0.188 -1.641,1.077 -1.276,2.305 0.366,1.231 1.482,2.436 2.89,3.125 3.126,1.528 6.253,3.057 9.379,4.588 2.833,1.385 5.367,1.867 7.65,1.453 2.109,-0.381 4.372,-0.463 6.802,-0.221 3.579,0.356 5.999,-0.939 6.745,-3.609 0.241,-0.861 0.482,-1.724 0.724,-2.586 0.204,-0.726 -0.077,-1.607 -0.795,-2.5 -0.719,-0.89 -1.674,-1.543 -2.708,-1.849 -1.194,-0.352 -2.387,-0.706 -3.579,-1.057 -5.767,-1.703 -10.534,-2.129 -15.257,-1.363"
           style="fill:#a8a29c;fill-opacity:1;fill-rule:evenodd;stroke:none"
           id="path118923" /><path
           d="m 482.133,181.053 c -7.669,1.146 -15.337,2.293 -23.006,3.441 -1.641,0.246 -3.027,1.1 -3.939,2.356 l 15.332,-2.485 c 10.146,-1.644 20.386,-0.73 32.772,2.93 2.562,0.756 5.127,1.514 7.69,2.269 2.222,0.659 4.273,2.057 5.815,3.975 0.823,1.022 1.378,2.037 1.652,3 l 1.511,-1.898 c 1.16,-1.457 1.51,-3.227 0.992,-5.018 -0.517,-1.791 -1.759,-3.098 -3.517,-3.713 l -6.091,-2.121 c -9.81,-3.42 -18.938,-4.273 -29.211,-2.736"
           style="fill:#695e52;fill-opacity:1;fill-rule:evenodd;stroke:none"
           id="path118925" /></g></g></g></svg>
